# xmcd
#
# Track frame offsets:
#	150
#	20440
#	35509
#	54180
#	72499
#	85691
#	107142
#	129509
#	148783
#	167549
#	189048
#	206127
#	227606
#	248648
#	267475
#	286660
#	302855
#	320480
#	335274
#
# Disc length: 4766 seconds
#
# Revision: 0
# Processed by: cddbd v1.4PL0 Copyright (c) Steve Scherf et al.
# Submitted via: dBpowerAMP V4.0
#
DISCID=07129c13
DTITLE=Jewel - This Way
DYEAR=1900
DGENRE=
TTITLE0=Standing Still
TTITLE1=Jesus Loves You
TTITLE2=Everybody Needs Somebody Sometime
TTITLE3=Break Me
TTITLE4=Do You Want To Play?
TTITLE5=Till We Run Out Of Road
TTITLE6=Serve The Ego
TTITLE7=This Way
TTITLE8=Cleveland
TTITLE9=I Won't Walk Away
TTITLE10=Love Me, Just Leave Me Alone
TTITLE11=The New Wild West
TTITLE12=Grey Matter
TTITLE13=Sometimes It Be That Way
TTITLE14=Deep Water
TTITLE15=What's Simple Is True
TTITLE16=Hands
TTITLE17=Kiss The Flame
TTITLE18=Life Uncommon
EXTD=
EXTT0=
EXTT1=
EXTT2=
EXTT3=
EXTT4=
EXTT5=
EXTT6=
EXTT7=
EXTT8=
EXTT9=
EXTT10=
EXTT11=
EXTT12=
EXTT13=
EXTT14=
EXTT15=
EXTT16=
EXTT17=
EXTT18=
PLAYORDER=
